<svg xmlns="http://www.w3.org/2000/svg" viewBox="0 0 256 256">
  <!-- Rounded square background dengan warna brand Moona -->
  <rect width="256" height="256" rx="56" fill="#406EB6"/>
  <!-- Logo "m + o" Moona, putih, scaled & centered di dalam square -->
  <g fill="#ffffff" transform="translate(40,78) scale(0.075)">
    <path d="M0 0 C96.69 0 193.38 0 293 0 C293 99.66 293 199.32 293 302 C807.8 302 1322.6 302 1853 302 C1853 596.36 1853 890.72 1853 1194 C1756.97 1194 1660.94 1194 1562 1194 C1562 995.67 1562 797.34 1562 593 C1401.62 593 1241.24 593 1076 593 C1076 790.67 1076 988.34 1076 1192 C978.98 1192 881.96 1192 782 1192 C782 994.33 782 796.66 782 593 C621.29 593 460.58 593 295 593 C295 791.33 295 989.66 295 1194 C5 1194 5 1194 0 1192 C0 798.64 0 405.28 0 0 Z" transform="translate(0,0)"/>
    <path d="M0 0 C50.51 -1.66 98.71 15.79 135.87 50.08 C171.54 83.38 192.88 129.22 195.03 175.61 C196.72 229.65 179.46 278.30 142.44 317.77 C129.60 331.16 115.15 342.20 98.87 351.08 C53.36 375.70 1.93 380.40 -45.60 366.80 C-82.58 355.60 -115.32 333.54 -139.13 303.08 C-164.82 270.65 -177.69 232.17 -179.13 193.08 C-179.98 158.64 -172.29 126.77 -157.13 99.08 C-149.11 83.31 -140.08 71.61 -130.13 61.08 C-97.22 23.44 -51.86 4.88 -8.07 0.33 C-5.38 0.17 -2.69 0.10 0 0 Z" transform="translate(2304,946)"/>
  </g>
</svg>
